<?xml version="1.0" standalone="no"?>
<!DOCTYPE svg PUBLIC "-//W3C//DTD SVG 20010904//EN"
 "http://www.w3.org/TR/2001/REC-SVG-20010904/DTD/svg10.dtd">
<svg version="1.0" xmlns="http://www.w3.org/2000/svg"
 width="150.000000pt" height="150.000000pt" viewBox="0 0 150.000000 150.000000"
 preserveAspectRatio="xMidYMid meet">

<g transform="translate(0.000000,150.000000) scale(0.100000,-0.100000)"
fill="#000000" stroke="none">
<path d="M405 1279 c-287 -167 -265 -131 -265 -437 l0 -233 60 33 60 33 0 175
c0 125 4 181 13 193 6 10 80 57 162 105 l150 87 3 73 c2 39 -1 72 -5 71 -4 0
-84 -45 -178 -100z"/>
<path d="M922 1308 l3 -73 135 -78 c74 -42 147 -86 163 -97 l27 -21 0 -182 0
-182 59 -33 c32 -17 61 -32 65 -32 11 0 7 409 -5 454 -6 23 -20 54 -32 69 -18
21 -394 247 -412 247 -3 0 -5 -33 -3 -72z"/>
<path d="M600 1036 l0 -173 -145 -84 c-80 -46 -147 -88 -148 -92 -1 -5 23 -24
55 -42 l56 -33 151 86 151 87 -2 178 -3 179 -57 34 -58 33 0 -173z"/>
<path d="M848 1173 l-58 -34 0 -177 1 -177 144 -82 c80 -46 151 -83 159 -83 8
0 40 15 70 33 l55 33 -144 83 c-79 45 -149 88 -154 95 -6 7 -12 84 -13 177
l-3 165 -57 -33z"/>
<path d="M605 641 l-150 -87 -3 -72 c-2 -40 -1 -72 2 -72 2 0 71 38 152 85 81
47 150 85 153 85 3 0 71 -38 151 -85 l145 -84 3 61 c2 33 1 66 -2 73 -3 9
-224 143 -296 180 -3 2 -72 -36 -155 -84z"/>
<path d="M925 299 c-82 -48 -159 -88 -170 -89 -10 0 -86 38 -167 85 -81 47
-153 85 -160 85 -7 0 -37 -15 -66 -34 -41 -25 -50 -35 -40 -43 7 -5 94 -56
193 -113 198 -114 241 -127 306 -95 104 53 379 219 372 225 -4 4 -33 21 -63
38 l-55 30 -150 -89z"/>
</g>
</svg>
