<?xml version="1.0" standalone="no"?>
<!DOCTYPE svg PUBLIC "-//W3C//DTD SVG 20010904//EN"
 "http://www.w3.org/TR/2001/REC-SVG-20010904/DTD/svg10.dtd">
<svg version="1.0" xmlns="http://www.w3.org/2000/svg"
 width="316.000000pt" height="352.000000pt" viewBox="0 0 316.000000 352.000000"
 preserveAspectRatio="xMidYMid meet">

<g transform="translate(0.000000,352.000000) scale(0.100000,-0.100000)"
fill="#000000" stroke="none">
<path d="M1513 3396 l-28 -24 0 -182 c0 -179 0 -182 24 -201 33 -27 67 -24 88
8 15 23 18 51 18 188 0 183 -5 207 -40 223 -33 15 -29 16 -62 -12z"/>
<path d="M466 2965 c-14 -13 -26 -28 -26 -32 0 -25 216 -244 283 -287 20 -14
30 -15 46 -6 28 14 44 47 37 75 -9 34 -263 275 -291 275 -12 0 -34 -11 -49
-25z"/>
<path d="M2513 2941 c-87 -72 -223 -218 -223 -239 0 -32 29 -62 61 -62 24 0
52 22 160 127 72 70 135 136 140 146 8 14 4 24 -20 47 -16 17 -36 30 -45 30
-8 0 -41 -22 -73 -49z"/>
<path d="M1430 2840 c-69 -5 -119 -16 -180 -39 -280 -106 -481 -295 -589 -556
-53 -127 -61 -173 -61 -363 0 -166 1 -178 30 -263 54 -162 104 -245 277 -458
45 -55 93 -120 107 -143 33 -57 71 -173 91 -278 25 -134 34 -158 64 -181 28
-21 28 -22 33 -153 6 -162 20 -196 109 -283 l64 -63 170 0 170 0 87 88 86 87
6 150 6 150 29 23 c33 25 45 57 60 158 24 164 89 309 199 442 177 218 225 294
279 445 24 65 27 90 31 254 3 159 1 191 -17 263 -44 173 -163 369 -292 479
-227 193 -456 266 -759 241z m288 -145 c266 -56 492 -248 595 -506 41 -103 57
-185 57 -300 0 -217 -70 -384 -254 -604 -145 -172 -208 -293 -248 -475 l-23
-105 -38 -3 -37 -3 5 113 c2 62 7 172 10 243 7 173 26 281 86 476 27 89 49
173 49 185 0 13 -12 32 -27 44 -25 20 -36 22 -103 16 -41 -3 -99 -15 -128 -26
-66 -25 -113 -25 -188 0 -124 43 -246 33 -252 -20 -1 -14 20 -101 48 -195 61
-205 78 -302 85 -505 3 -85 8 -195 11 -244 l5 -89 -56 5 c-30 3 -57 7 -60 10
-3 3 -10 34 -16 69 -25 159 -100 315 -224 464 -222 268 -286 411 -286 640 0
378 253 705 623 804 91 25 266 28 366 6z m-267 -1081 c57 -21 170 -22 236 -1
29 9 54 13 56 9 2 -4 -13 -69 -34 -144 -41 -149 -59 -276 -59 -416 0 -49 -3
-150 -7 -225 l-6 -137 -67 0 -67 0 -6 238 c-8 270 -24 394 -73 563 -19 65 -34
121 -34 124 0 8 15 6 61 -11z m309 -1190 l0 -125 -47 -55 -47 -54 -80 0 c-122
0 -151 8 -201 52 l-45 40 0 134 0 134 210 0 210 0 0 -126z"/>
<path d="M102 1961 c-43 -11 -82 -48 -82 -78 0 -14 11 -29 27 -40 23 -15 51
-18 188 -18 88 0 172 3 187 8 61 17 61 88 0 114 -43 18 -267 28 -320 14z"/>
<path d="M2693 1959 c-32 -9 -63 -50 -63 -83 0 -9 12 -23 26 -33 23 -15 53
-17 204 -18 161 0 180 2 199 19 42 38 12 96 -60 116 -42 12 -263 11 -306 -1z"/>
<path d="M613 1048 c-52 -51 -113 -117 -135 -145 -39 -51 -40 -54 -24 -77 21
-33 49 -40 83 -22 15 8 86 73 157 146 l129 131 -28 29 c-50 52 -74 43 -182
-62z"/>
<path d="M2307 1112 l-28 -29 45 -54 c44 -54 173 -175 232 -218 26 -19 34 -20
56 -10 14 6 31 22 37 35 9 22 5 31 -48 91 -32 38 -92 101 -135 141 -88 83
-115 90 -159 44z"/>
</g>
</svg>
